<svg enable-background="new 0 0 430 430" height="512" viewBox="0 0 430 430" width="512" xmlns="http://www.w3.org/2000/svg"><g id="isometric"><g><path d="m270.5 279-37-16.8-185 83.7 37 16.7 74-33.4 37 16.7 37-16.7-37-16.8z" fill="#597ba1"/><path d="m196.5 379.3 37-16.7-37-16.7-37 16.7z" fill="#597ba1"/><path d="m196.5 412.8 37-16.7-37-16.8-37 16.8z" fill="#597ba1"/><path d="m233.5 329.2 37 16.7 37-16.7-37-16.8z" fill="#597ba1"/><path d="m307.5 329.2 37 16.7 37-16.7-37-16.8z" fill="#597ba1"/><g fill="#0f4c81"><path d="m196.5 312.4v33.5l37-16.7z"/><path d="m196.5 379.3 37-16.7-37-16.7z"/><path d="m196.5 412.8 37-16.7-37-16.8z"/><path d="m270.5 345.9 37-16.7-37-16.8z"/><path d="m344.5 312.4v33.5l37-16.7z"/><path d="m233.5 262.2v33.5l37-16.7z"/></g><g fill="#597ba1"><path d="m270.5 35-74 33.4 37 16.8 37-16.8z"/><path d="m196.5 101.9 37 16.7v-33.4z"/><path d="m196.5 135.4 37 16.7v-33.5z"/><path d="m196.5 168.8v41.8l37-16.7v-41.8z"/><path d="m270.5 101.9v41.8l37-16.8v-41.7z"/><path d="m344.5 101.9v41.8l37-16.8v-41.7z"/><path d="m159.5 85.2-74 33.4v41.8l74-33.5z"/></g><path d="m159.5 85.2v33.4l37-16.7z" fill="#0f4c81"/><path d="m159.5 118.6v33.5l37-16.7z" fill="#0f4c81"/><path d="m159.5 152.1v41.8l37 16.7v-41.8z" fill="#0f4c81"/><path d="m48.5 101.9v41.8l37 16.7v-41.8z" fill="#0f4c81"/><path d="m233.5 85.2v41.7l37 16.8v-41.8z" fill="#0f4c81"/><path d="m307.5 85.2v41.7l37 16.8v-41.8z" fill="#0f4c81"/><path d="m270.5 35-37-16.8-185 83.7 37 16.7 74-33.4 37 16.7 37-16.7-37-16.8z" fill="#c6d1e0"/><path d="m196.5 135.3 37-16.7-37-16.7-37 16.7z" fill="#c6d1e0"/><path d="m196.5 168.8 37-16.7-37-16.8-37 16.8z" fill="#c6d1e0"/><path d="m233.5 85.2 37 16.7 37-16.7-37-16.8z" fill="#c6d1e0"/><path d="m307.5 85.2 37 16.7 37-16.7-37-16.8z" fill="#c6d1e0"/></g></g><g id="black"><g><path d="m382.9 326.4-37-16.7c-.9-.4-2-.4-2.9 0l-35.6 16.1-35.6-16.1c-.9-.4-2-.4-2.9 0l-35.6 16.1-28.3-12.9 29.9-13.5 37-16.7c2.7-1.1 2.7-5.3 0-6.4l-37-16.7c-.9-.4-2-.4-2.9 0l-185 83.6c-2.7 1.1-2.7 5.3 0 6.4 0 0 37 16.7 37 16.7.5.2 1 .3 1.4.3s1-.1 1.4-.3l72.6-32.8 28.5 12.9-29.9 13.5c-1.3.6-2.1 1.8-2.1 3.2s.8 2.6 2.1 3.2l29.9 13.5-29.9 13.5c-2.7 1.1-2.7 5.3 0 6.4 0 0 37 16.7 37 16.7.9.4 2 .4 2.9 0l37-16.7c2.7-1.1 2.7-5.3 0-6.4l-29.9-13.5 29.9-13.5c1.3-.6 2.1-1.8 2.1-3.2s-.8-2.6-2.1-3.2l-29.9-13.6 28.5-12.9 35.6 16.1c.5.2.9.3 1.4.3s1-.1 1.4-.3l35.6-16.1 35.6 16.1c.5.2 1 .3 1.4.3s1-.1 1.4-.3l37-16.7c2.7-1.1 2.7-5.3 0-6.4zm-157.9 70.1-28.5 12.9-28.5-12.9 25.1-11.3v12.1c0 1.9 1.6 3.5 3.5 3.5s3.5-1.6 3.5-3.5v-12zm0-33.4-28.5 12.9-28.5-12.9 25.1-11.3v11.5c0 1.9 1.6 3.5 3.5 3.5s3.5-1.6 3.5-3.5v-11.4zm-28.5-20.6-35.6-16.1c-.9-.4-2-.4-2.9 0l-72.6 32.8-28.4-12.9 173-78.2v12.1c0 1.9 1.6 3.5 3.5 3.5s3.5-1.6 3.5-3.5v-12.1l25 11.3-66.9 30.3c-1.4.6-2.3 2.3-2 3.8v16.5c.1 4.6 6.9 4.6 7 0v-11.6l24.9 11.3zm74 0-28.5-12.9 25-11.3v11.7c0 1.9 1.6 3.5 3.5 3.5s3.5-1.6 3.5-3.5v-11.7l25 11.3zm74 0-28.5-12.9 25-11.3v11.7c0 1.9 1.6 3.5 3.5 3.5s3.5-1.6 3.5-3.5v-11.7l25 11.3z"/><path d="m48.5 189.7c1.7 0 3-1.3 3-3v-18.2c0-1.7-1.3-3-3-3s-3 1.3-3 3v18.2c0 1.7 1.3 3 3 3z"/><path d="m307.5 168.2c1.7 0 3-1.3 3-3v-18.2c0-1.7-1.3-3-3-3s-3 1.3-3 3v18.2c0 1.7 1.3 3 3 3z"/><path d="m384.5 147.1c0-1.7-1.3-3-3-3s-3 1.3-3 3v18.2c0 1.7 1.3 3 3 3s3-1.3 3-3z"/><path d="m344.5 220.6c1.7 0 3-1.3 3-3v-54.2c0-1.7-1.3-3-3-3s-3 1.3-3 3v54.2c0 1.6 1.3 3 3 3z"/><path d="m341.5 244.6c0 1.7 1.3 3 3 3s3-1.3 3-3v-9.1c0-1.7-1.3-3-3-3s-3 1.3-3 3z"/><path d="m85.3 239.1c1.7 0 3-1.3 3-3v-53.2c0-1.7-1.3-3-3-3s-3 1.3-3 3v53.2c0 1.7 1.4 3 3 3z"/><path d="m82.3 263.1c0 1.7 1.3 3 3 3s3-1.3 3-3v-9.1c0-1.7-1.3-3-3-3s-3 1.3-3 3z"/><circle cx="381.5" cy="182.4" r="3"/><circle cx="307.5" cy="182.4" r="3"/><path d="m48.5 206.9c1.7 0 3-1.3 3-3s-1.3-3-3-3-3 1.3-3 3 1.3 3 3 3z"/><path d="m383.6 80.6-37-16.7c-.7-.3-1.4-.4-2.1-.4s-1.4.1-2.1.4l-34.9 15.8-32-14.5v-30.2c0-2-1.2-3.7-2.9-4.6l-37-16.7c-.7-.3-1.4-.4-2.1-.4s-1.4.1-2.1.4l-185 83.6c-1.8.8-2.9 2.6-2.9 4.6v41.8c0 2 1.2 3.7 2.9 4.6l37 16.7c.7.3 1.4.4 2.1.4s1.4-.1 2.1-.4l66.9-30.3v59.2c0 2 1.2 3.7 2.9 4.6l37 16.7c.7.3 1.4.4 2.1.4s1.4-.1 2.1-.4l37-16.7c1.8-.8 2.9-2.6 2.9-4.6v-59.2l29.9 13.5c.7.3 1.4.4 2.1.4s1.4-.1 2.1-.4l34.9-15.8 34.9 15.8c.7.3 1.4.4 2.1.4s1.4-.1 2.1-.4l37-16.7c1.8-.8 2.9-2.6 2.9-4.6v-41.7c0-2-1.2-3.8-2.9-4.6zm-300.1 76.7-33-14.9v-37.4l33 14.9zm74-31.6-70 31.6v-37.4l65.6-29.6 4.4-2zm2.2-42.5c-.4-.1-.7 0-1.1.2l-73.2 33.1-32.1-14.5 180.1-81.4 32.2 14.4-70 31.6c-1.5.6-1.5 3 0 3.6l33 14.9-32.1 14.5-36.2-16.4c-.2.1-.3 0-.6 0zm4.7 35.4 32.1-14.5 32.1 14.5-32.1 14.5zm27.2 16.8-30.1 13.6v-22-5.2zm-30.1-19.9v-27.2l30.1 13.6zm33 92-33-14.9v-37.4l33 14.9zm2-40.9-32.1-14.5 32.1-14.5 32.1 14.5zm35 26-33 14.9v-37.4l33-14.9zm0-43.6-30.1-13.6 30.1-13.6zm0-33.5-30.1-13.6 30.1-13.6zm-30.1-47.1 67.1-30.4v29.1l-35 15.8zm67.1 72.2-33-14.9v-7-30.4l33 14.9zm-30.1-55.4 32.1-14.5 32.1 14.5-32.1 14.5zm67.1 40.5-33 14.9v-37.4l33-14.9zm37 14.9-33-14.9v-37.4l33 14.9zm-30.2-55.4 32.1-14.5 32.1 14.5c-1.7.8-29.5 13.4-32.1 14.5zm67.2 40.5-33 14.9v-37.4c1.4-.6 32.5-14.7 33-14.9z"/></g></g></svg>