<svg height="512" viewBox="0 0 32 32" width="512" xmlns="http://www.w3.org/2000/svg" xmlns:xlink="http://www.w3.org/1999/xlink"><linearGradient id="linear-gradient" gradientUnits="userSpaceOnUse" x1="4" x2="28" y1="15.5" y2="15.5"><stop offset="0" stop-color="#fde941"/><stop offset="1" stop-color="#f37d1c"/></linearGradient><g id="Beetroot"><path d="m16 29a12.01375 12.01375 0 0 1 -12-12c0-7.46338 10.99512-14.5459 11.46289-14.84375a1.0026 1.0026 0 0 1 1.07422 0c.46777.29785 11.46289 7.38037 11.46289 14.84375a12.01375 12.01375 0 0 1 -12 12zm0-24.7959c-2.14844 1.48096-10 7.27149-10 12.7959a10 10 0 0 0 20 0c0-5.52441-7.85156-11.31494-10-12.7959zm0 20.7959a7.86558 7.86558 0 0 1 -7.85693-7.85693c0-4.15479 6.5-9.35205 7.24121-9.93116a1.00138 1.00138 0 0 1 1.23144 0c.74121.57911 7.24121 5.77637 7.24121 9.93116a7.86558 7.86558 0 0 1 -7.85693 7.85693zm0-15.71143c-2.06885 1.73731-5.85693 5.42188-5.85693 7.8545a5.85693 5.85693 0 1 0 11.71386 0c0-2.43262-3.78808-6.11719-5.85693-7.8545zm2.65674 10.69532a3.98581 3.98581 0 0 0 0-5.96778.99984.99984 0 1 0 -1.31348 1.50782 1.98716 1.98716 0 0 1 0 2.95214.99984.99984 0 1 0 1.31348 1.50782zm-3.90283-.09717a.99962.99962 0 0 0 -.09717-1.41065 1.98716 1.98716 0 0 1 0-2.95214.99984.99984 0 1 0 -1.31348-1.50782 3.98581 3.98581 0 0 0 0 5.96778.99946.99946 0 0 0 1.41065-.09717z" fill="url(#linear-gradient)"/></g></svg>